HIERARCHY
ROOT Hips
{
	OFFSET 0.00000 0.00000 0.00000
	CHANNELS 6 Xposition Yposition Zposition Zrotation Yrotation Xrotation 
	JOINT LHipJoint
	{
		OFFSET 0 0 0
		CHANNELS 3 Zrotation Yrotation Xrotation
		JOINT LeftUpLeg
		{
			OFFSET 1.62067 -1.77917 0.70989
			CHANNELS 3 Zrotation Yrotation Xrotation
			JOINT LeftLeg
			{
				OFFSET 2.34532 -6.44371 0.00000
				CHANNELS 3 Zrotation Yrotation Xrotation
				JOINT LeftFoot
				{
					OFFSET 2.74224 -7.53425 0.00000
					CHANNELS 3 Zrotation Yrotation Xrotation
					JOINT LeftToeBase
					{
						OFFSET 0.17032 -0.46794 2.08086
						CHANNELS 3 Zrotation Yrotation Xrotation
						End Site
						{
							OFFSET 0.00000 -0.00000 1.07476
						}
					}
				}
			}
		}
	}
	JOINT RHipJoint
	{
		OFFSET 0 0 0
		CHANNELS 3 Zrotation Yrotation Xrotation
		JOINT RightUpLeg
		{
			OFFSET -1.55811 -1.77917 0.70989
			CHANNELS 3 Zrotation Yrotation Xrotation
			JOINT RightLeg
			{
				OFFSET -2.33243 -6.40830 0.00000
				CHANNELS 3 Zrotation Yrotation Xrotation
				JOINT RightFoot
				{
					OFFSET -2.78798 -7.65993 0.00000
					CHANNELS 3 Zrotation Yrotation Xrotation
					JOINT RightToeBase
					{
						OFFSET -0.22707 -0.62388 2.04059
						CHANNELS 3 Zrotation Yrotation Xrotation
						End Site
						{
							OFFSET -0.00000 -0.00000 1.07030
						}
					}
				}
			}
		}
	}
	JOINT LowerBack
	{
		OFFSET 0 0 0
		CHANNELS 3 Zrotation Yrotation Xrotation
		JOINT Spine
		{
			OFFSET 0.02203 1.91565 0.07161
			CHANNELS 3 Zrotation Yrotation Xrotation
			JOINT Spine1
			{
				OFFSET 0.01740 1.90525 0.11636
				CHANNELS 3 Zrotation Yrotation Xrotation
				JOINT Neck
				{
					OFFSET 0 0 0
					CHANNELS 3 Zrotation Yrotation Xrotation
					JOINT Neck1
					{
						OFFSET -0.10841 1.83566 0.05067
						CHANNELS 3 Zrotation Yrotation Xrotation
						JOINT Head
						{
							OFFSET 0.06601 1.74760 -0.50505
							CHANNELS 3 Zrotation Yrotation Xrotation
							End Site
							{
								OFFSET 0.03102 1.85215 -0.17697
							}
						}
					}
				}
				JOINT LeftShoulder
				{
					OFFSET 0 0 0
					CHANNELS 3 Zrotation Yrotation Xrotation
					JOINT LeftArm
					{
						OFFSET 2.87059 1.35470 0.16111
						CHANNELS 3 Zrotation Yrotation Xrotation
						JOINT LeftForeArm
						{
							OFFSET 5.43592 -0.00000 0.00000
							CHANNELS 3 Zrotation Yrotation Xrotation
							JOINT LeftHand
							{
								OFFSET 3.25460 -0.00000 0.00000
								CHANNELS 3 Zrotation Yrotation Xrotation
								JOINT LeftFingerBase
								{
									OFFSET 0 0 0
									CHANNELS 3 Zrotation Yrotation Xrotation
									JOINT LeftHandIndex1
									{
										OFFSET 0.49824 -0.00000 0.00000
										CHANNELS 3 Zrotation Yrotation Xrotation
										End Site
										{
											OFFSET 0.40170 -0.00000 0.00000
										}
									}
								}
								JOINT LThumb
								{
									OFFSET 0 0 0
									CHANNELS 3 Zrotation Yrotation Xrotation
									End Site
									{
										OFFSET 0.40783 -0.00000 0.40783
									}
								}
							}
						}
					}
				}
				JOINT RightShoulder
				{
					OFFSET 0 0 0
					CHANNELS 3 Zrotation Yrotation Xrotation
					JOINT RightArm
					{
						OFFSET -2.86643 1.23488 0.45957
						CHANNELS 3 Zrotation Yrotation Xrotation
						JOINT RightForeArm
						{
							OFFSET -5.33830 -0.00000 0.00000
							CHANNELS 3 Zrotation Yrotation Xrotation
							JOINT RightHand
							{
								OFFSET -3.23148 -0.00000 0.00000
								CHANNELS 3 Zrotation Yrotation Xrotation
								JOINT RightFingerBase
								{
									OFFSET 0 0 0
									CHANNELS 3 Zrotation Yrotation Xrotation
									JOINT RightHandIndex1
									{
										OFFSET -0.46364 -0.00000 0.00000
										CHANNELS 3 Zrotation Yrotation Xrotation
										End Site
										{
											OFFSET -0.37380 -0.00000 0.00000
										}
									}
								}
								JOINT RThumb
								{
									OFFSET 0 0 0
									CHANNELS 3 Zrotation Yrotation Xrotation
									End Site
									{
										OFFSET -0.37951 -0.00000 0.37951
									}
								}
							}
						}
					}
				}
			}
		}
	}
}
MOTION
Frames: 12
Frame Time: .0083333
4.142 17.564 3.958 0 0 0 0 0 0 -21 0 0 0 0 0 0 0 0 0 0 0 0 0 0 21 0 0 0 0 0 0 0 0 0 0 0 0 0 0 0 0 0 0 0 0 0 0 -16 0 0 21 0 0 11 0 0 0 -8 0 0 0 0 0 0 0 0 0 0 0 0 0 0 0 0 0 0 0 0 8 0 0 0 0 0 0 0 0 0 0 0 0 0 0 0 0 0
4.1420 17.5640 3.9580 -4.0685 -12.2008 20.3165 0.0000 0.0000 0.0000 -21.6160 -11.2358 -20.7314 1.2284 7.0291 19.8016 0.4994 8.6938 -19.2398 0.3456 3.7774 10.4513 0.0000 0.0000 0.0000 -1.5316 12.1157 2.2682 -0.0115 -0.6919 1.9015 -0.9897 -17.8504 20.3298 -3.5281 11.5044 -34.0006 7.2128 -0.9187 -7.8618 3.3152 -1.2512 -13.4236 -0.4121 -1.1883 -10.1084 12.5059 17.3901 -4.3178 5.6307 21.5859 13.7538 1.3864 11.4859 5.6068 0.0000 0.0000 0.0000 38.2342 -8.4348 -33.0345 16.8281 -26.6306 -4.0100 -0.0000 0.0000 -39.9025 27.6642 -15.9379 -8.1913 -7.1250 0.0000 -0.0000 -0.0345 12.1088 0.0265 0.0000 0.0000 0.0000 -13.1466 -18.6618 -21.1886 -140.6273 47.6938 -102.0261 0.0000 -0.0000 -57.5213 -3.1177 -45.1448 2.2112 7.1250 -0.0000 -0.0000 51.0092 -68.7450 -31.9448
4.1408 17.5664 3.9589 -4.2857 -12.5611 20.5198 0.0000 0.0000 0.0000 -21.4542 -11.1237 -21.0022 1.2491 7.0859 19.9700 0.4897 8.9266 -19.3565 0.3297 3.6906 10.2079 0.0000 0.0000 0.0000 -1.5083 12.4224 2.3736 -0.0055 -0.4794 1.3172 -1.0237 -18.0119 20.6239 -3.5283 11.5047 -34.0016 7.2721 -0.7427 -7.9721 3.3323 -1.0293 -13.3951 -0.4339 -1.0807 -9.9986 12.5240 17.3796 -4.6405 5.6392 21.5138 13.8780 1.4200 11.4565 5.6978 0.0000 0.0000 0.0000 38.2827 -8.6194 -33.7950 16.7259 -26.4950 -3.9643 -0.0000 0.0000 -39.2288 27.4677 -16.1288 -8.2175 -7.1250 0.0000 -0.0000 -0.1841 11.9279 0.1420 0.0000 0.0000 0.0000 -13.0617 -18.7631 -21.2512 -140.6240 47.6958 -102.0236 0.0000 -0.0000 -57.4129 -3.4437 -45.2138 2.4456 7.1250 -0.0000 -0.0000 50.8607 -68.8934 -31.9900
4.1438 17.5643 3.9652 -4.2933 -12.5196 20.4880 0.0000 0.0000 0.0000 -21.4841 -11.0747 -20.9523 1.2513 7.0921 19.9885 0.4872 8.9118 -19.3153 0.3027 3.5372 9.7782 0.0000 0.0000 0.0000 -1.4793 12.4085 2.3492 -0.0075 -0.5591 1.5363 -1.0078 -17.9556 20.4947 -3.5483 11.5338 -34.1021 7.3786 -0.7378 -8.0750 3.3133 -1.0388 -13.3466 -0.5177 -1.0934 -9.8884 12.5117 17.3683 -4.7082 5.6385 21.4860 13.9916 1.4325 11.4467 5.7435 0.0000 0.0000 0.0000 38.2708 -8.4826 -33.4663 16.7958 -26.5877 -3.9955 -0.0000 0.0000 -39.5866 28.0915 -16.2314 -8.4857 -7.1250 0.0000 -0.0000 0.2192 11.7171 -0.1701 0.0000 0.0000 0.0000 -13.0449 -18.7074 -21.2940 -140.6041 47.7079 -102.0089 0.0000 -0.0000 -57.3947 -3.6312 -45.1326 2.5753 7.1250 -0.0000 -0.0000 50.5252 -68.9045 -31.7525
4.1456 17.5650 3.9616 -4.3266 -12.6113 20.5703 0.0000 0.0000 0.0000 -21.4506 -11.0977 -21.0810 1.2559 7.1044 20.0252 0.4878 8.9702 -19.3775 0.3040 3.5449 9.7996 0.0000 0.0000 0.0000 -1.5009 12.5625 2.1055 -0.0095 -0.6308 1.7334 -1.0030 -17.9588 20.4630 -3.5686 11.5630 -34.2031 7.4083 -0.6947 -8.1254 3.3095 -0.9876 -13.3494 -0.5398 -1.0708 -9.8606 12.6049 17.3529 -4.7277 5.5248 21.4656 14.0782 1.3981 11.4366 5.7972 0.0000 -0.0000 0.0000 38.2756 -8.2852 -32.9310 16.8863 -26.7076 -4.0361 -0.0000 0.0000 -40.0798 29.3393 -16.2620 -8.9449 -7.1250 0.0000 -0.0000 1.0410 11.4807 -0.8131 0.0000 -0.0000 0.0000 -13.0203 -18.6774 -21.3459 -140.6085 47.7052 -102.0122 0.0000 -0.0000 -57.3639 -3.7436 -45.1233 2.6547 7.1250 -0.0000 -0.0000 50.4053 -68.9354 -31.6957
4.1451 17.5649 3.9633 -4.0862 -12.1602 20.2509 0.0000 0.0000 0.0000 -21.6547 -11.0860 -20.7996 1.2552 7.1025 20.0195 0.5164 8.5656 -19.3024 0.3058 3.5555 9.8295 0.0000 0.0000 0.0000 -1.4693 12.0741 2.3751 -0.0117 -0.6983 1.9189 -0.9775 -17.8832 20.2593 -3.5764 11.5744 -34.2424 7.3145 -0.8903 -7.9644 3.2576 -1.2361 -13.2688 -0.5409 -1.1854 -9.8727 12.6753 17.3846 -4.7593 5.5011 21.4976 14.1169 1.3936 11.4547 5.8262 -0.0000 -0.0000 0.0000 38.2872 -8.2479 -32.8988 16.8727 -26.6897 -4.0300 -0.0000 0.0000 -40.1354 29.9016 -16.3773 -9.2101 -7.1250 0.0000 -0.0000 1.3984 11.2568 -1.0989 -0.0000 -0.0000 0.0000 -12.9696 -18.6551 -21.4722 -140.6096 47.7045 -102.0130 0.0000 -0.0000 -57.3315 -3.4479 -45.2487 2.4501 7.1250 -0.0000 -0.0000 50.9292 -68.9161 -32.0647
4.1419 17.5672 3.9646 -4.2587 -12.6633 20.5119 0.0000 0.0000 0.0000 -21.5375 -11.0138 -21.0143 1.2506 7.0902 19.9828 0.4941 8.9055 -19.3838 0.3120 3.5907 9.9278 0.0000 0.0000 0.0000 -1.5461 12.6970 1.8555 -0.0163 -0.8231 2.2623 -0.9574 -17.8620 20.1131 -3.6049 11.6152 -34.3840 7.2442 -0.7515 -8.1376 3.3387 -1.0614 -13.3368 -0.4189 -1.0893 -9.8344 12.5953 17.4686 -4.6599 5.7183 21.6027 14.1813 1.4656 11.5185 5.8010 -0.0000 -0.0000 0.0000 38.2324 -8.2212 -32.7368 16.8536 -26.6643 -4.0214 -0.0000 0.0000 -40.1047 29.8812 -16.2743 -9.1473 -7.1250 0.0000 -0.0000 1.3970 11.3760 -1.0943 -0.0000 -0.0000 0.0000 -13.0064 -18.4898 -21.4656 -140.5886 47.7173 -101.9975 0.0000 -0.0000 -57.2482 -3.2284 -45.2740 2.2949 7.1250 -0.0000 -0.0000 51.1769 -68.8600 -32.1903
4.1433 17.5662 3.9648 -4.2810 -12.6107 20.5267 0.0000 0.0000 0.0000 -21.4838 -11.1309 -20.9732 1.2457 7.0766 19.9426 0.4780 9.0086 -19.3097 0.3129 3.5959 9.9425 0.0000 0.0000 0.0000 -1.4970 12.7330 1.6330 -0.0226 -0.9709 2.6687 -0.9219 -17.7729 19.8321 -3.6349 11.6581 -34.5329 7.3032 -0.7708 -8.1671 3.3521 -1.0892 -13.3680 -0.4357 -1.1094 -9.8588 12.5415 17.4835 -4.6861 5.8780 21.5962 14.3706 1.5293 11.5304 5.8428 0.0000 -0.0000 0.0000 38.2196 -8.2112 -32.5052 16.8341 -26.6386 -4.0127 -0.0000 0.0000 -40.1061 29.7606 -16.1930 -9.0600 -7.1250 0.0000 -0.0000 1.3268 11.4878 -1.0363 0.0000 -0.0000 0.0000 -13.0252 -18.4063 -21.3570 -140.5908 47.7159 -101.9991 0.0000 -0.0000 -57.1625 -3.3618 -45.2400 2.3885 7.1250 -0.0000 -0.0000 50.9876 -68.8827 -32.0731
4.1417 17.5652 3.9634 -4.1001 -12.1994 20.3072 0.0000 0.0000 0.0000 -21.5852 -11.2638 -20.7514 1.2457 7.0766 19.9426 0.4891 8.7830 -19.2127 0.3185 3.6276 10.0313 0.0000 0.0000 0.0000 -1.4250 12.3200 1.7611 -0.0275 -1.0709 2.9440 -0.8923 -17.6881 19.5910 -3.6329 11.6552 -34.5229 7.2427 -0.9134 -8.0393 3.3015 -1.2689 -13.3235 -0.4535 -1.1942 -9.8906 12.5891 17.4329 -4.8645 5.8177 21.4986 14.5200 1.5265 11.4868 5.9297 0.0000 0.0000 0.0000 38.2444 -8.1947 -32.3756 16.8392 -26.6453 -4.0149 -0.0000 0.0000 -40.1645 30.0386 -16.3831 -9.2634 -7.1250 0.0000 -0.0000 1.4879 11.2267 -1.1702 0.0000 0.0000 0.0000 -12.9822 -18.4771 -21.3533 -140.6030 47.7086 -102.0081 0.0000 -0.0000 -57.1334 -3.5951 -45.2864 2.5564 7.1250 -0.0000 -0.0000 50.8761 -68.9872 -32.0994
4.1365 17.5676 3.9624 -4.2138 -12.6748 20.5522 0.0000 0.0000 0.0000 -21.5078 -11.2509 -20.9660 1.2448 7.0743 19.9356 0.4675 9.1459 -19.3293 0.3275 3.6783 10.1734 0.0000 0.0000 0.0000 -1.5322 12.8710 1.3225 -0.0317 -1.1496 3.1605 -0.8903 -17.6845 19.5757 -3.6011 11.6097 -34.3650 7.1119 -0.7447 -8.1821 3.3240 -1.0558 -13.3227 -0.3642 -1.0733 -9.7849 12.5369 17.4597 -5.2189 5.8842 21.4698 14.6986 1.5938 11.4810 6.0309 -0.0000 -0.0000 0.0000 38.2377 -8.1278 -32.4183 16.8915 -26.7146 -4.0385 -0.0000 0.0000 -40.2372 30.6383 -16.4970 -9.5474 -7.1250 0.0000 -0.0000 1.8684 10.9939 -1.4786 -0.0000 -0.0000 0.0000 -12.9234 -18.5273 -21.4667 -140.5732 47.7266 -101.9860 0.0000 -0.0000 -57.0972 -3.6031 -45.2552 2.5608 7.1250 -0.0000 -0.0000 50.8040 -68.9707 -32.0286
4.1405 17.5656 3.9667 -4.1698 -12.6727 20.5591 0.0000 0.0000 0.0000 -21.5652 -11.3217 -20.9466 1.2428 7.0688 19.9192 0.4661 9.1840 -19.3516 0.3493 3.7974 10.5075 0.0000 0.0000 0.0000 -1.5899 12.9169 1.1259 -0.0391 -1.2770 3.5113 -0.8756 -17.6224 19.4464 -3.5497 11.5358 -34.1090 7.1568 -0.7551 -8.2406 3.3099 -1.0770 -13.3366 -0.4048 -1.0893 -9.7713 12.3844 17.5292 -5.2740 6.0923 21.5398 14.8007 1.6849 11.5259 6.0344 0.0000 -0.0000 0.0000 38.1596 -7.9667 -32.0928 16.9984 -26.8557 -4.0866 -0.0000 0.0000 -40.5597 31.2557 -16.4968 -9.7789 -7.1250 0.0000 -0.0000 2.2733 10.8838 -1.8046 0.0000 -0.0000 0.0000 -12.9150 -18.4503 -21.4360 -140.5853 47.7193 -101.9950 0.0000 -0.0000 -57.0548 -3.7031 -45.1957 2.6292 7.1250 -0.0000 -0.0000 50.5912 -68.9668 -31.8662
4.1406 17.5651 3.9661 -4.1329 -12.6741 20.5469 0.0000 0.0000 0.0000 -21.6152 -11.2379 -20.9844 1.2439 7.0719 19.9285 0.4865 9.0109 -19.4027 0.3855 3.9870 11.0401 0.0000 0.0000 0.0000 -1.6242 12.9343 1.0508 -0.0423 -1.3275 3.6503 -0.8720 -17.6610 19.4370 -3.5324 11.5107 -34.0221 7.1232 -0.7776 -8.2011 3.3241 -1.0989 -13.3970 -0.3667 -1.0995 -9.8645 12.2801 17.5687 -5.1197 6.2421 21.6082 14.8003 1.7273 11.5647 5.9824 -0.0000 0.0000 0.0000 38.0665 -7.8919 -31.7897 17.0659 -26.9446 -4.1172 -0.0000 0.0000 -40.7648 31.7041 -16.3746 -9.8786 -7.1250 0.0000 -0.0000 2.5827 10.9413 -2.0477 -0.0000 0.0000 0.0000 -12.9500 -18.4056 -21.3185 -140.6802 47.6617 -102.0652 0.0000 -0.0000 -57.0836 -4.1052 -45.2785 2.9194 7.1250 -0.0000 -0.0000 50.4034 -69.1493 -31.9158
